Coordinates
version=1
nRows=17
nColumns=40
inDegrees=yes

Units are S.I. units (second, meters, Newtons, ...)
Angles are in degrees.

endheader
time	pelvis_tilt	pelvis_list	pelvis_rotation	pelvis_tx	pelvis_ty	pelvis_tz	hip_flexion_r	hip_adduction_r	hip_rotation_r	knee_angle_r	knee_angle_r_beta	ankle_angle_r	subtalar_angle_r	mtp_angle_r	hip_flexion_l	hip_adduction_l	hip_rotation_l	knee_angle_l	knee_angle_l_beta	ankle_angle_l	subtalar_angle_l	mtp_angle_l	lumbar_extension	lumbar_bending	lumbar_rotation	arm_flex_r	arm_add_r	arm_rot_r	elbow_flex_r	pro_sup_r	wrist_flex_r	wrist_dev_r	arm_flex_l	arm_add_l	arm_rot_l	elbow_flex_l	pro_sup_l	wrist_flex_l	wrist_dev_l
      6.44000000	     -1.62094417	     -4.39774894	     -1.13139893	      0.73851288	      0.92197524	      0.49669422	     20.12997365	      1.28157133	    -10.89583538	     24.15148265	     24.15148265	      7.13846645	     -6.96725321	     -4.21073906	      5.85457533	     -7.98084664	     -2.67966330	     41.04374933	     41.04374933	     13.99257706	    -16.18692922	     -7.78242298	     -9.70803926	      8.67155481	     -0.47186720	      2.52922806	    -13.41217884	    -16.21929192	     33.74111201	     45.75066900	      0.00000000	      0.00000000	     -0.17882574	    -10.90614357	     -4.58693016	     67.65339933	     46.93966755	      0.00000000	      0.00000000
      6.45342857	     -1.60207174	     -4.49218321	     -0.83476685	      0.73879019	      0.92276912	      0.49921002	     19.44715570	      1.52963360	    -11.12527282	     23.86603598	     23.86603598	      7.51694557	     -6.94039624	     -4.30023937	      7.89713133	     -8.54933494	     -2.26784900	     45.13191874	     45.13191874	     12.00724023	    -16.92754085	     -7.98091795	     -9.59010807	      8.65793483	     -0.52400995	      3.88808416	    -13.65301909	    -16.14683137	     34.60307784	     45.72722620	      0.00000000	      0.00000000	     -0.46313843	    -10.93398865	     -4.39151088	     66.87329356	     46.91898442	      0.00000000	      0.00000000
      6.46685714	     -1.43417492	     -4.64694454	     -0.57322071	      0.73891674	      0.92368412	      0.50175875	     18.60646637	      1.84627064	    -11.38914230	     23.57716204	     23.57716204	      7.88748494	     -6.83562493	     -4.37614298	      9.78115149	     -9.16609757	     -1.89068099	     49.00988599	     49.00988599	     10.11410789	    -17.52527161	     -7.65792324	     -9.71690784	      8.66293755	     -0.25331694	      5.24316636	    -14.01524676	    -16.09355515	     35.31745206	     45.70840433	      0.00000000	      0.00000000	     -0.54652683	    -10.86280406	     -4.28131349	     66.41117683	     46.90679888	      0.00000000	      0.00000000
      6.48028571	     -1.45868100	     -4.70027779	     -0.28853646	      0.73873428	      0.92433395	      0.50405996	     17.97402789	      2.03757872	    -11.67663312	     23.24265593	     23.24265593	      8.17971232	     -6.71278584	     -4.49653225	     12.05389050	     -9.49123698	     -1.25625517	     52.96058374	     52.96058374	      9.78099318	    -17.55888677	     -3.18251885	     -9.60346317	      8.58100510	     -0.06028553	      6.13488206	    -14.52012590	    -15.11213741	     37.15188819	     45.60861103	      0.00000000	      0.00000000	     -0.34323658	    -10.65738174	     -4.36504296	     64.62231385	     46.91668767	      0.00000000	      0.00000000
      6.49371429	     -1.36224639	     -4.85931307	     -0.01355330	      0.73846623	      0.92500761	      0.50644043	     17.22381352	      2.35998605	    -11.94581079	     22.92171522	     22.92171522	      8.47495385	     -6.59315480	     -4.52287993	     13.98528864	    -10.06713781	     -0.91388576	     56.11828386	     56.11828386	      8.26825638	    -17.94701288	     -2.46349822	     -9.68356229	      8.54229754	      0.18517148	      7.53370550	    -14.90556158	    -15.05977581	     37.88559832	     45.58998160	      0.00000000	      0.00000000	     -0.55172303	    -10.63126205	     -4.26468054	     64.22652463	     46.90483229	      0.00000000	      0.00000000
      6.50714286	     -1.37611778	     -4.87707043	      0.28006300	      0.73794429	      0.92564783	      0.50850576	     16.60051184	      2.50123748	    -12.26584003	     22.59370739	     22.59370739	      8.77095631	     -6.39150637	     -4.53922416	     16.17662392	    -10.24478066	     -0.32321544	     59.17344026	     59.17344026	      9.02134037	    -17.74472935	      3.86437122	     -9.66659049	      8.39356416	      0.28955705	      8.58608274	    -15.43795729	    -13.93244164	     39.72063740	     45.48970853	      0.00000000	      0.00000000	     -0.42591763	    -10.41738289	     -4.66826658	     62.48644604	     46.93295655	      0.00000000	      0.00000000
      6.52057143	     -1.34189750	     -4.99539592	      0.59239644	      0.73732417	      0.92628785	      0.51061103	     15.90174161	      2.78017303	    -12.55257469	     22.18604781	     22.18604781	      9.00711012	     -6.28484061	     -4.50639615	     18.02418956	    -10.70909100	     -0.04276816	     61.17873828	     61.17873828	      8.05331067	    -18.11698753	      4.48543101	     -9.73490063	      8.29741397	      0.46522945	     10.01325330	    -15.79967463	    -13.88249728	     40.53165705	     45.46913436	      0.00000000	      0.00000000	     -0.68418126	    -10.39490184	     -4.61261608	     61.96550924	     46.91951237	      0.00000000	      0.00000000
      6.53400000	     -1.34125207	     -4.99026676	      0.90888014	      0.73649824	      0.92701558	      0.51241710	     15.22662433	      2.90479872	    -12.86141150	     21.73685678	     21.73685678	      9.23290839	     -6.04157759	     -4.50304529	     19.94509238	    -10.87485759	      0.33167805	     62.81821408	     62.81821408	      8.82246757	    -18.09559892	      8.91858981	     -9.77085277	      8.11523035	      0.56650354	     11.03704503	    -16.36033555	    -12.76525622	     42.60269496	     45.36762679	      0.00000000	      0.00000000	     -0.39231286	    -10.05170458	     -5.36320857	     59.71307684	     46.96034049	      0.00000000	      0.00000000
      6.54742857	     -1.36064551	     -5.00633605	      1.25846987	      0.73557607	      0.92772550	      0.51409521	     14.53939981	      3.06556279	    -13.15356226	     21.20126864	     21.20126864	      9.45804619	     -5.83715091	     -4.50489304	     21.69051672	    -11.09200812	      0.59244821	     63.59045653	     63.59045653	      8.94286493	    -18.30116769	     10.56556893	     -9.80998860	      7.94374941	      0.62400363	     12.21738729	    -16.81681333	    -12.18439516	     44.22753445	     45.31212519	      0.00000000	      0.00000000	     -0.38045767	     -9.86186981	     -5.71851607	     58.24644893	     46.97396829	      0.00000000	      0.00000000
      6.56085714	     -1.37108191	     -5.05769016	      1.64282493	      0.73450172	      0.92854778	      0.51564528	     13.79731946	      3.27325071	    -13.50529577	     20.54124139	     20.54124139	      9.55849241	     -5.66718917	     -4.40600196	     23.25500506	    -11.34382397	      0.77838775	     63.56377051	     63.56377051	      8.93034929	    -18.50359210	     10.97874190	     -9.90070118	      7.80377716	      0.48855430	     13.78267263	    -16.98735730	    -12.12908436	     45.42050879	     45.28041241	      0.00000000	      0.00000000	     -0.69212802	     -9.94471338	     -5.77441652	     57.22004281	     46.96176122	      0.00000000	      0.00000000
      6.57428571	     -1.43402048	     -4.97998050	      1.98755603	      0.73333090	      0.92929956	      0.51694730	     13.17084333	      3.33119729	    -13.73950573	     19.99199921	     19.99199921	      9.74298222	     -5.54755613	     -4.36344160	     24.70071581	    -11.40264083	      0.84816618	     62.83612353	     62.83612353	      9.07692177	    -18.68272589	     11.28064702	     -9.95298167	      7.52472060	      0.60264481	     15.23071611	    -17.32539511	    -12.11273515	     46.43804366	     45.25383309	      0.00000000	      0.00000000	     -0.90437682	     -9.87916716	     -5.84183492	     56.39962630	     46.95339122	      0.00000000	      0.00000000
      6.58771429	     -1.50113290	     -4.90748377	      2.40087692	      0.73203553	      0.93017381	      0.51795018	     12.43593260	      3.35974236	    -14.23805978	     19.21939273	     19.21939273	      9.79794190	     -5.03095241	     -4.57777199	     26.03682010	    -11.31307498	      1.03199469	     61.50250611	     61.50250611	      9.92382579	    -18.71617897	     12.97572384	    -10.00116787	      7.36608095	      0.68525364	     15.83077965	    -17.89455104	    -11.25533304	     49.63644924	     45.12606407	      0.00000000	      0.00000000	      0.02324595	     -9.29015164	     -7.18454353	     52.41406192	     47.01851198	      0.00000000	      0.00000000
      6.60114286	     -1.68873019	     -4.81656124	      2.72502356	      0.73054864	      0.93070670	      0.51891586	     12.00925035	      3.38946349	    -14.42952488	     18.73935022	     18.73935022	      9.94791497	     -5.02599027	     -4.51724644	     27.28412958	    -11.24101296	      1.00522873	     59.49007972	     59.49007972	     10.30109930	    -18.72630291	     13.09707405	    -10.00244763	      7.09036956	      0.89487823	     17.25479272	    -18.34539095	    -11.35979325	     50.48010856	     45.11077763	      0.00000000	      0.00000000	     -0.26619344	     -9.20717762	     -7.15439053	     52.01372131	     47.00565579	      0.00000000	      0.00000000
      6.61457143	     -1.64786641	     -4.74768373	      3.15601015	      0.72927546	      0.93181028	      0.51959196	     10.98268905	      3.49860292	    -14.78868759	     17.61712609	     17.61712609	      9.97590951	     -4.59610675	     -4.40637871	     28.00357863	    -11.02718304	      1.14903653	     56.73286011	     56.73286011	     10.69889116	    -18.75352757	     13.37185198	    -10.19156821	      6.96649345	      0.21249911	     18.84420530	    -17.99189543	    -11.22657178	     52.69005755	     45.04065982	      0.00000000	      0.00000000	     -0.58727899	     -9.37689416	     -7.34973999	     50.08360995	     46.99289838	      0.00000000	      0.00000000
      6.62800000	     -1.85447613	     -4.63093840	      3.48439530	      0.72778093	      0.93227916	      0.52006130	     10.46887658	      3.45416362	    -15.21151808	     16.94288481	     16.94288481	      9.98123686	     -4.16687459	     -4.79341208	     28.82273306	    -10.73552447	      1.15073306	     53.54739971	     53.54739971	     10.96158494	    -18.70209872	     13.19077024	    -10.16175035	      6.81635485	      0.85735641	     18.91221337	    -18.95758923	    -10.81557946	     56.58212106	     44.92457892	      0.00000000	      0.00000000	      0.65535326	     -8.66787886	     -8.57320424	     46.15956014	     47.05211349	      0.00000000	      0.00000000
      6.64142857	     -2.00276905	     -4.53673132	      3.81855251	      0.72627639	      0.93275512	      0.52042166	      9.87724549	      3.48053063	    -15.44720659	     16.22587328	     16.22587328	     10.07482995	     -3.97363753	     -4.76556638	     29.38127311	    -10.36868960	      1.24652893	     49.92526948	     49.92526948	     11.21320063	    -18.55833848	     13.19622488	    -10.20470085	      6.66935132	      0.59408653	     20.41727966	    -18.89509989	    -10.94625961	     58.34585062	     44.88795216	      0.00000000	      0.00000000	      0.33381798	     -8.71545824	     -8.64463895	     44.97206563	     47.03329955	      0.00000000	      0.00000000
      6.65485714	     -2.13362825	     -4.42665687	      4.12666160	      0.72482142	      0.93314326	      0.52066175	      9.32062741	      3.45702327	    -15.71461975	     15.63040999	     15.63040999	     10.15700744	     -3.68335948	     -4.82359528	     29.70167398	     -9.91589781	      1.40224255	     45.92533833	     45.92533833	     11.31758870	    -18.31713374	     12.98336345	    -10.28740115	      6.47537324	      0.38622695	     21.69301163	    -18.84478896	    -10.93347624	     60.31674251	     44.83730673	      0.00000000	      0.00000000	      0.20957985	     -8.74887416	     -8.81330409	     43.45210268	     47.02438067	      0.00000000	      0.00000000
